<?xml version="1.0" encoding="UTF-8" standalone="no"?>
<!-- Generator: Adobe Illustrator 14.0.0, SVG Export Plug-In . SVG Version: 6.00 Build 43363)  -->
<svg id="Layer_1" xmlns:rdf="http://www.w3.org/1999/02/22-rdf-syntax-ns#" style="enable-background:new 0 0 31.992 32" xmlns="http://www.w3.org/2000/svg" xml:space="preserve" height="32px" viewBox="0 0 31.992 32" width="31.992px" version="1.1" y="0px" x="0px" xmlns:cc="http://creativecommons.org/ns#" xmlns:dc="http://purl.org/dc/elements/1.1/"><metadata id="metadata11"><rdf:RDF><cc:Work rdf:about=""><dc:format>image/svg+xml</dc:format><dc:type rdf:resource="http://purl.org/dc/dcmitype/StillImage"/><dc:title/></cc:Work></rdf:RDF></metadata>
<path id="path6" d="m31.963 15.116c-1.629-0.27398-2.1084-0.21437-3.4851-0.2632l-0.24278-0.0081c0.05561-0.12207 0.09766-0.20481 0.11122-0.21701 0.02984-0.02442 0.05425-0.1275 0.05697-0.22786 0-0.05561 0.02441-0.236 0.06239-0.47472 0.37299 0.01356 0.86806 0.02442 1.4079 0.02848 3.0643 0.1677 1.891-0.02887 2.0752-0.061-1.0566-0.07188-2.5716-0.09901-3.4641-0.08409 0.02577-0.15462 0.05561-0.32688 0.08681-0.5032 0.12614-0.68224 0.16818-1.3685 0.1709-2.7344 0.0027-2.1186-0.11122-2.7018-0.80159-4.1029-0.28-0.5725-0.598-1.0581-0.982-1.4975 0.335-0.9888 0.327-2.5201-0.02-3.8629-0.286-1.1013-0.387-1.1718-1.385-0.96024-0.846 0.18039-1.524 0.42589-2.394 0.86394-0.411 0.2076-0.978 0.5304-1.389 0.784-1.071-0.3771-2.179-0.6266-3.362-0.7609-1.199-0.13563-4.138-0.05967-5.181 0.1329-1.02 0.1886-1.938 0.4191-2.77 0.6931-0.415-0.2563-1.0172-0.6022-1.4471-0.8192-0.8735-0.43947-1.5517-0.68361-2.4007-0.864-0.9956-0.21295-1.0987-0.14106-1.3835 0.9603-0.3526 1.3604-0.3554 2.9175-0.0067 3.9035 0.0406 0.1126 0.0651 0.1926 0.0746 0.255-1.4134 1.7795-1.8745 3.7706-1.568 6.5497 0.080021 0.72428 0.20345 1.3889 0.3757 1.9979-0.90196-0.0054-2.1851 0.02713-3.1114 0.08681-1.5761 0.10444-0.59908 0.06816-0.92085 0.14849-0.016259 0.0041-0.0067355 0.01045 0.015614 0.0095 1.4618-0.06183 0.89438-0.08203 2.9777-0.09695 0.39334-0.0014 0.7609-0.0095 1.0769-0.01763 0.094943 0.32145 0.20345 0.62798 0.32688 0.9196l-0.0095 0.0014c-1.3767 0.04747-1.8067 0.06786-3.4517 0.24584-0.26792 0.03228-0.67346 0.1951-0.95419 0.30065 1.7106-0.30874 1.3474-0.22776 4.1278-0.46104l0.3106-0.02713c0.59679 1.3862 1.5164 2.4441 2.8158 3.2688 0.79481 0.50591 2.0684 1.0254 2.71 1.1068 0.17632 0.0217 0.68902 0.1275 1.1393 0.23329 0.45166 0.10579 1.3346 0.26448 1.9613 0.35536h0.01492c-0.0122 0.0081-0.02306 0.01356-0.03391 0.0217-0.75955 0.39469-1.2533 1.0091-1.5856 1.9762-0.1492 0.04475-0.33502 0.1058-0.53575 0.17497-0.7175 0.24414-0.99691 0.29432-1.7239 0.29975-0.75412 0.0054-0.93316-0.02713-1.3835-0.23872-0.65511-0.30518-1.2655-0.8667-1.6724-1.5367-0.67952-1.1203-1.8541-1.9124-2.8334-1.9124-0.83686 0-0.99555 0.33908-0.39062 0.83415 0.91146 0.74463 1.5923 1.5042 1.8717 2.0847 0.15733 0.32552 0.39876 0.82872 0.53847 1.1176 0.14784 0.30789 0.46387 0.72564 0.76497 1.0145 0.70801 0.67546 1.3916 0.99826 2.4116 1.1502 0.68359 0.10037 0.85178 0.10037 1.6588-0.0027 0.38927-0.04747 0.7175-0.10308 1.0118-0.17226v1.1597c0 2.3953-0.02848 3.1657-0.12343 3.3908-0.17904 0.4286-0.58051 0.86941-0.97114 1.0674-0.38927 0.19802-0.50998 0.4164-0.34587 0.61713 0.090874 0.10851 0.26584 0.1275 0.85314 0.08952 1.1149-0.06917 1.9029-0.4815 2.3044-1.2085 0.12885-0.23329 0.15869-0.70258 0.19938-3.144 0.0434-2.6489 0.06239-2.9039 0.23465-3.2823 0.10444-0.22515 0.25499-0.46929 0.33908-0.53575 0.14106-0.11664 0.15055 0.11393 0.15055 3.2823-0.0014 3.4966-0.03662 3.9185-0.38656 4.5912-0.07867 0.15327-0.22786 0.35265-0.3323 0.44759-0.1831 0.16683-0.26042 0.59408-0.13292 0.72293 0.21023 0.20888 1.2641-0.11936 1.8392-0.57237 0.97928-0.77582 1.0959-1.4174 1.1041-6.0506l0.0041-2.7181 0.29704 0.02848 0.29704 0.02713 0.04883 3.555c0.05561 4.0025 0.06375 4.0609 0.74463 4.834 0.38656 0.43674 0.77582 0.67817 1.4092 0.8667 0.84771 0.25499 1.1027-0.13835 0.53304-0.82058-0.61985-0.74192-0.64968-1.0254-0.61578-5.4172 0.02306-2.8158 0.02306-2.8158 0.20481-2.6516 0.38249 0.34722 0.45573 0.91688 0.45573 3.5577 0 3.2796 0.09359 3.5916 1.2519 4.164 0.54118 0.26449 0.69309 0.29704 1.3862 0.29975 0.73785 0.0027 0.7826-0.0081 0.80973-0.20074 0.02306-0.15598-0.06781-0.26177-0.41232-0.472-0.45166-0.27805-0.76498-0.63341-0.96164-1.081-0.0746-0.17226-0.12478-1.3007-0.15869-3.6241-0.04883-3.2457-0.05968-3.3936-0.26177-3.9022-0.27262-0.68359-0.68902-1.2234-1.2166-1.5815-0.13699-0.08952-0.27398-0.16412-0.45166-0.21973 0.21837-0.0217 0.42996-0.04475 0.63476-0.0746 2.1322-0.28348 3.2593-0.51948 4.164-0.86941 1.9138-0.73649 3.2077-1.9599 3.909-3.6947 0.06239-0.15462 0.12478-0.30111 0.17768-0.41911l0.53982 0.04476c2.7818 0.23465 1.5226 0.05766 3.2332 0.33576l-0.02082-0.154zm-6.941 0.19796c-0.31603 0.69444-1.1976 1.5869-1.9097 1.9368-0.70258 0.34722-1.8039 0.61171-3.0518 0.73785-0.85314 0.08681-5.6112 0.11258-6.3965 0.03527-2.6-0.255-4.0563-0.755-5.1306-1.758-1.0172-0.952-1.4919-2.244-1.4092-3.835 0.0529-0.996 0.293-1.621 0.921-2.381 0.571-0.6915 1.1718-1.1187 1.8798-1.3357 0.593-0.1818 2.412-0.198 4.857-0.0407 1.081 0.069174 1.9748 0.069174 3.0545 0 2.558-0.1614 4.2657-0.14377 4.8964 0.051545 0.99148 0.30653 1.8948 1.1312 2.4373 2.2298 0.24414 0.49099 0.29161 0.69987 0.32688 1.4581 0.04883 1.0444-0.13156 2.1539-0.47472 2.9012zm-12.898-4.484c-1.4553-0.25499-2.2868 2.2366-1.1705 3.5088 0.53033 0.60357 1.001 0.70258 1.5896 0.33637 0.54525-0.34044 0.84093-0.97656 0.84093-1.8012 0-1.1-0.50049-1.9084-1.26-2.044zm8.8338 0.1492c-1.4553-0.25499-2.2881 2.2339-1.1719 3.5075 0.53168 0.60357 1.001 0.70394 1.591 0.33501 0.54389-0.33908 0.84093-0.97656 0.84093-1.8012 0-1.0959-0.50049-1.907-1.26-2.0413zm-3.915 4.899c-0.03119 0.10037-0.1831 0.24956-0.33637 0.32958-0.38791 0.19938-0.66732 0.13021-1.0769-0.24278-0.25364-0.22922-0.36892-0.34994-0.44624-0.10986-0.07189 0.22244 0.37977 0.66867 0.72835 0.80566 0.3201 0.1275 0.54932 0.13156 0.89654-0.01356 0.34451-0.14377 0.64562-0.53033 0.64562-0.78125 0-0.23329-0.33502-0.22244-0.41097 0.01221zm-0.42995-0.7799c0.22108-0.19531 0.27126-0.59679 0.05968-0.80974-0.21159-0.21294-0.64155-0.18039-0.80973 0.05833-0.19531 0.2794-0.09087 0.49235 0.04883 0.71886 0.21701 0.16818 0.50863 0.20209 0.70122 0.03255z"/></svg>
